<svg xmlns="http://www.w3.org/2000/svg" version="1.1" xmlns:xlink="http://www.w3.org/1999/xlink" width="200" height="200"><svg xmlns="http://www.w3.org/2000/svg" version="1.1" xmlns:xlink="http://www.w3.org/1999/xlink" viewBox="0 0 200 200"><rect width="200" height="200" fill="url('#gradient')"></rect><defs><linearGradient id="SvgjsLinearGradient1011" gradientTransform="rotate(45 0.5 0.5)"><stop offset="0%" stop-color="#353664"></stop><stop offset="100%" stop-color="#211c36"></stop></linearGradient></defs><g><g fill="#fcfb9b" transform="matrix(2.0631296171927467,0,0,2.0631296171927467,8.749262526901553,111.06990007652861)" stroke="#a8dc9f" stroke-width="0.2"><path d="M11.65-12.46L4.92-2.64L11.72-2.64L11.72 0L0.64 0L0.64-1.81L7.42-11.57L0.61-11.57L0.61-14.22L11.65-14.22L11.65-12.46ZM16.34-15L16.34-9.43Q17.39-10.76 19.03-10.76L19.03-10.76Q20.78-10.76 21.67-9.73Q22.56-8.69 22.58-6.67L22.58-6.67L22.58 0L19.28 0L19.28-6.59Q19.28-7.43 18.94-7.83Q18.59-8.22 17.77-8.22L17.77-8.22Q16.76-8.22 16.34-7.58L16.34-7.58L16.34 0L13.05 0L13.05-15L16.34-15ZM33.65 0L30.36 0Q30.19-0.32 30.05-0.95L30.05-0.95Q29.14 0.20 27.51 0.20L27.51 0.20Q26.02 0.20 24.97-0.71Q23.93-1.61 23.93-2.98L23.93-2.98Q23.93-4.70 25.20-5.58Q26.46-6.46 28.89-6.46L28.89-6.46L29.90-6.46L29.90-7.01Q29.90-8.47 28.64-8.47L28.64-8.47Q27.47-8.47 27.47-7.31L27.47-7.31L24.18-7.31Q24.18-8.85 25.48-9.80Q26.79-10.76 28.81-10.76Q30.83-10.76 32.00-9.78Q33.17-8.79 33.20-7.07L33.20-7.07L33.20-2.39Q33.22-0.94 33.65-0.17L33.65-0.17L33.65 0ZM28.30-2.15L28.30-2.15Q28.92-2.15 29.32-2.41Q29.73-2.68 29.90-3.01L29.90-3.01L29.90-4.70L28.95-4.70Q27.23-4.70 27.23-3.15L27.23-3.15Q27.23-2.71 27.53-2.43Q27.83-2.15 28.30-2.15ZM34.62-4.82L34.61-5.38Q34.61-6.96 35.22-8.20Q35.84-9.43 36.99-10.10Q38.14-10.76 39.70-10.76L39.70-10.76Q42.07-10.76 43.44-9.29Q44.80-7.82 44.80-5.29L44.80-5.29L44.80-5.18Q44.80-2.71 43.43-1.25Q42.06 0.20 39.72 0.20L39.72 0.20Q37.46 0.20 36.09-1.16Q34.73-2.51 34.62-4.82L34.62-4.82ZM37.91-5.77L37.90-5.18Q37.90-3.71 38.36-3.03Q38.82-2.34 39.72-2.34L39.72-2.34Q41.47-2.34 41.51-5.05L41.51-5.05L41.51-5.38Q41.51-8.22 39.70-8.22L39.70-8.22Q38.05-8.22 37.91-5.77L37.91-5.77ZM48.66-10.57L50.33-4.61L52.09-10.57L55.62-10.57L51.31 1.77L51.12 2.22Q50.21 4.27 47.88 4.27L47.88 4.27Q47.24 4.27 46.52 4.07L46.52 4.07L46.52 1.72L46.95 1.72Q47.65 1.72 48.01 1.52Q48.38 1.32 48.55 0.80L48.55 0.80L48.82 0.10L45.15-10.57L48.66-10.57ZM65.57 0L62.28 0Q62.10-0.32 61.96-0.95L61.96-0.95Q61.05 0.20 59.42 0.20L59.42 0.20Q57.93 0.20 56.88-0.71Q55.84-1.61 55.84-2.98L55.84-2.98Q55.84-4.70 57.11-5.58Q58.38-6.46 60.80-6.46L60.80-6.46L61.82-6.46L61.82-7.01Q61.82-8.47 60.56-8.47L60.56-8.47Q59.38-8.47 59.38-7.31L59.38-7.31L56.09-7.31Q56.09-8.85 57.40-9.80Q58.70-10.76 60.72-10.76Q62.74-10.76 63.92-9.78Q65.09-8.79 65.12-7.07L65.12-7.07L65.12-2.39Q65.14-0.94 65.57-0.17L65.57-0.17L65.57 0ZM60.21-2.15L60.21-2.15Q60.83-2.15 61.24-2.41Q61.64-2.68 61.82-3.01L61.82-3.01L61.82-4.70L60.86-4.70Q59.14-4.70 59.14-3.15L59.14-3.15Q59.14-2.71 59.44-2.43Q59.75-2.15 60.21-2.15ZM66.88-10.57L69.96-10.57L70.07-9.33Q71.16-10.76 73.09-10.76L73.09-10.76Q74.74-10.76 75.55-9.78Q76.37-8.79 76.40-6.81L76.40-6.81L76.40 0L73.10 0L73.10-6.67Q73.10-7.47 72.77-7.85Q72.45-8.22 71.60-8.22L71.60-8.22Q70.63-8.22 70.17-7.46L70.17-7.46L70.17 0L66.88 0L66.88-10.57ZM77.83-5.24L77.83-5.36Q77.83-6.96 78.36-8.19Q78.89-9.42 79.87-10.09Q80.86-10.76 82.17-10.76L82.17-10.76Q83.82-10.76 84.75-9.65L84.75-9.65L84.86-10.57L87.85-10.57L87.85-0.40Q87.85 1.00 87.20 2.03Q86.55 3.06 85.32 3.61Q84.09 4.16 82.47 4.16L82.47 4.16Q81.31 4.16 80.22 3.72Q79.13 3.28 78.55 2.58L78.55 2.58L79.93 0.64Q80.85 1.73 82.35 1.73L82.35 1.73Q84.54 1.73 84.54-0.52L84.54-0.52L84.54-0.85Q83.59 0.20 82.15 0.20L82.15 0.20Q80.21 0.20 79.02-1.28Q77.83-2.76 77.83-5.24L77.83-5.24ZM81.13-5.16L81.13-5.16Q81.13-3.86 81.62-3.10Q82.11-2.34 82.99-2.34L82.99-2.34Q84.05-2.34 84.54-3.06L84.54-3.06L84.54-7.50Q84.06-8.22 83.01-8.22L83.01-8.22Q82.13-8.22 81.63-7.44Q81.13-6.65 81.13-5.16Z"></path></g></g></svg><style>@media (prefers-color-scheme: light) { :root { filter: none; } }
@media (prefers-color-scheme: dark) { :root { filter: none; } }
</style></svg>